<?xml version="1.0" encoding="utf-8"?>
<?xml-stylesheet type="text/xsl" href="rss1.xsl"?>
<rss version="2.0" xmlns:atom="http://www.w3.org/2005/Atom" xmlns:content="http://purl.org/rss/1.0/modules/content/" xmlns:dc="http://purl.org/dc/elements/1.1/" xmlns:media="http://search.yahoo.com/mrss/">
<channel>
 <title>Getty</title>
 <link>http://www.gettyimg.com/</link>
 <atom:link href="http://www.gettyimg.com/" rel="self" type="application/rss+xml" />

 
                <item>
                <title><![CDATA[【HD Live Performances】HDTV - Christmas in Rockefeller Center S01E37 2023 1080i HDTV DD5.1 H.264-TrollHD]]></title>
                <link><![CDATA[https://sharemania.us/threads/christmas-in-rockefeller-center-s01e37-2023-1080i-hdtv-dd5-1-h-264-trollhd.235000/]]></link>
                <description><![CDATA[<article>
<blockquote class="messageText SelectQuoteContainer ugc baseHtml">
<div style="text-align: center"><span style="font-size: 18px"><span style="color: #ff0000"><b>Christmas in Rockefeller Center S01E37 2023 1080i HDTV DD5.1 H.264-TrollHD</b></span></span><br>
<br>
<i><span style="font-size: 12px">The 91st annual tree-lighting ceremony in New York features celebrity guests and live performances.</span></i><br>
<br>
Chloe Bailey<br>
Adam Blackstone<br>
Cher<br>
David Foster<br>
Liz Gillies<br>
Darlene Love<br>
Seth MacFarlane<br>
Barry Manilow<br>
Katharine McPhee<br>
Keke Palmer<br>
Carly Pearce<br>
Manuel Turizo<br>
Radio City Rockettes<br>
<br>
<span style="font-size: 12px">(from <a href="https://sharemania.us/threads/91st-annual-christmas-in-rockefeller-center-hdtv-mpeg2-1080i-dd5-1-ilya2129.233083/" class="internalLink">here</a>)</span><br>
<br>
<img src="https://images2.imgbox.com/e3/fb/kTnn89oX_o.jpg" class="bbCodeImage LbImage" alt="[​IMG]" data-url="https://images2.imgbox.com/e3/fb/kTnn89oX_o.jpg" style=""> <br>
<div style="text-align: center">​</div>
<div class="ToggleTriggerAnchor bbCodeSpoilerContainer">
<button type="button" class="button bbCodeSpoilerButton ToggleTrigger Tooltip JsOnly" data-target="> .SpoilerTarget"><span>Spoiler: <span class="SpoilerTitle">MediaInfo</span></span></button>
<div class="SpoilerTarget bbCodeSpoilerText">Format : Matroska<br>
Format version : Version 4<br>
File size : 14.2 GiB<br>
Duration : 2 h 9 min<br>
Overall bit rate : 15.7 Mb/s<br>
Encoded date : UTC 2023-12-03 18:09:56<br>
Writing application : mkvmerge v77.0 ('Elemental') 64-bit<br>
Writing library : libebml v1.4.4 + libmatroska v1.7.1<br>
<br>
Video<br>
ID : 1<br>
Format : AVC<br>
Format/Info : Advanced Video Codec<br>
Format profile : High@L4<br>
Format settings : CABAC / 4 Ref Frames<br>
Format settings, CABAC : Yes<br>
Format settings, Reference : 4 frames<br>
Codec ID : V_MPEG4/ISO/AVC<br>
Duration : 2 h 9 min<br>
Bit rate : 15.2 Mb/s<br>
Width : 1 920 pixels<br>
Height : 1 080 pixels<br>
Display aspect ratio : 16:9<br>
Frame rate mode : Variable<br>
Frame rate : 59.940 (59940/1000) FPS<br>
Original frame rate : 29.970 (30000/1001) FPS<br>
Standard : Component<br>
Color space : YUV<br>
Chroma subsampling : 4:2:0<br>
Bit depth : 8 bits<br>
Scan type : Interlaced<br>
Scan type, store method : Separated fields<br>
Scan order : Top Field First<br>
Bits/(Pixel*Frame) : 0.123<br>
Stream size : 13.8 GiB (97%)<br>
Default : No<br>
Forced : No<br>
Color range : Limited<br>
Color primaries : BT.709<br>
Transfer characteristics : BT.709<br>
Matrix coefficients : BT.709<br>
<br>
Audio<br>
ID : 2<br>
Format : AC-3<br>
Format/Info : Audio Coding 3<br>
Commercial name : Dolby Digital<br>
Codec ID : A_AC3<br>
Duration : 2 h 9 min<br>
Bit rate mode : Constant<br>
Bit rate : 448 kb/s<br>
Channel(s) : 6 channels<br>
Channel layout : L R C LFE Ls Rs<br>
Sampling rate : 48.0 kHz<br>
Frame rate : 31.250 FPS (1536 SPF)<br>
Compression mode : Lossy<br>
Stream size : 414 MiB (3%)<br>
Language : English<br>
Service kind : Complete Main<br>
Default : No<br>
Forced : No<br>
<br>
Text<br>
ID : 3<br>
Format : UTF-8<br>
Codec ID : S_TEXT/UTF8<br>
Codec ID/Info : UTF-8 Plain Text<br>
Duration : 2 h 9 min<br>
Bit rate : 146 b/s<br>
Frame rate : 0.407 FPS<br>
Count of elements : 3151<br>
Stream size : 139 KiB (0%)<br>
Language : English<br>
Default : Yes<br>
Forced : No</div>
</div><div style="text-align: center"><br>
<div class="bbCodeBlock bbCodeVfcHH HiddenContent">
<div class="attribution type">Hidden Content:</div>
<blockquote>You must either reply or click 'Like' to see the hidden information contained here.</blockquote>
</div></div></div>
<div class="messageTextEndMarker">&nbsp;</div>
</blockquote>
</article>]]></description>
                <author><![CDATA[melodie]]></author>
                </item>

                
                <item>
                <title><![CDATA[【HD Live Performances】WEB-DL - iHeartRadio Jingle Ball (2023) 1080p Hulu WEB-DL DD+ 5.1 H.264-TrollHD]]></title>
                <link><![CDATA[https://sharemania.us/threads/iheartradio-jingle-ball-2023-1080p-hulu-web-dl-dd-5-1-h-264-trollhd.235001/]]></link>
                <description><![CDATA[<article>
<blockquote class="messageText SelectQuoteContainer ugc baseHtml">
thanks
<div class="messageTextEndMarker">&nbsp;</div>
</blockquote>
</article>]]></description>
                <author><![CDATA[melodie]]></author>
                </item>

                </channel></rss>